<svg xmlns="http://www.w3.org/2000/svg" version="1.1" xmlns:xlink="http://www.w3.org/1999/xlink" xmlns:svgjs="http://svgjs.com/svgjs" width="1440" height="560" preserveAspectRatio="none" viewBox="0 0 1440 560"><g mask="url(&quot;#SvgjsMask1005&quot;)" fill="none"><rect width="1440" height="560" x="0" y="0" fill="rgba(40, 7, 95, 1)"></rect><path d="M 0,216 C 57.6,195.2 172.8,124.6 288,112 C 403.2,99.4 460.8,155.2 576,153 C 691.2,150.8 748.8,81 864,101 C 979.2,121 1036.8,255 1152,253 C 1267.2,251 1382.4,123.4 1440,91L1440 560L0 560z" fill="rgba(65, 31, 130, 1)"></path><path d="M 0,457 C 96,426.2 288,292.2 480,303 C 672,313.8 768,500.8 960,511 C 1152,521.2 1344,385.4 1440,354L1440 560L0 560z" fill="rgba(113, 80, 227, 1)"></path></g><defs><mask id="SvgjsMask1005"><rect width="1440" height="560" fill="#ffffff"></rect></mask></defs></svg>